<?xml version="1.0" encoding="UTF-8"?>
<!DOCTYPE svg PUBLIC "-//W3C//DTD SVG 1.1//EN" "http://www.w3.org/Graphics/SVG/1.1/DTD/svg11.dtd">
<svg xmlns="http://www.w3.org/2000/svg" version="1.1" width="116px" height="101px" style="shape-rendering:geometricPrecision; text-rendering:geometricPrecision; image-rendering:optimizeQuality; fill-rule:evenodd; clip-rule:evenodd" xmlns:xlink="http://www.w3.org/1999/xlink">
<g><path style="opacity:0.948" fill="#104d88" d="M 19.5,-0.5 C 45.1667,-0.5 70.8333,-0.5 96.5,-0.5C 98.475,0.646381 99.975,2.31305 101,4.5C 101.667,19.8333 101.667,35.1667 101,50.5C 100.127,56.2477 98.127,61.581 95,66.5C 85.5971,80.0704 74.0971,91.4037 60.5,100.5C 58.8333,100.5 57.1667,100.5 55.5,100.5C 43.5198,91.416 32.6865,81.0827 23,69.5C 19.863,64.8918 17.5297,59.8918 16,54.5C 15.3333,37.1667 15.3333,19.8333 16,2.5C 17.1451,1.36362 18.3117,0.363622 19.5,-0.5 Z M 28.5,13.5 C 35.175,13.3337 41.8417,13.5004 48.5,14C 38.7204,24.3912 32.2204,36.5579 29,50.5C 28.5001,38.1712 28.3335,25.8378 28.5,13.5 Z M 71.5,13.5 C 76.8333,13.5 82.1667,13.5 87.5,13.5C 87.6621,15.5273 87.4955,17.5273 87,19.5C 63.3174,31.8306 50.9841,51.4973 50,78.5C 47.6667,76.1667 45.3333,73.8333 43,71.5C 40.0196,45.7964 49.5196,26.4631 71.5,13.5 Z M 86.5,35.5 C 89.6519,46.8022 87.1519,56.8022 79,65.5C 74.3333,70.1667 69.6667,74.8333 65,79.5C 63.3744,60.4196 70.541,45.753 86.5,35.5 Z"/></g>
</svg>
